solid OpenSCAD_Model
  facet normal -1 0 0
    outer loop
      vertex 0 0 0
      vertex 0 0 1
      vertex 0 37.5 0
    endloop
  endfacet
  facet normal -1 0 0
    outer loop
      vertex 0 37.5 0
      vertex 0 0 1
      vertex 0 37.5 1
    endloop
  endfacet
  facet normal 0 -1 0
    outer loop
      vertex 0 0 1
      vertex 0 0 0
      vertex 27.5 0 0
    endloop
  endfacet
  facet normal 0 -1 0
    outer loop
      vertex 27.5 0 1
      vertex 0 0 1
      vertex 27.5 0 0
    endloop
  endfacet
  facet normal 0 0 -1
    outer loop
      vertex 0 0 0
      vertex 0 37.5 0
      vertex 27.5 0 0
    endloop
  endfacet
  facet normal 0 0 -1
    outer loop
      vertex 27.5 0 0
      vertex 0 37.5 0
      vertex 27.5 37.5 0
    endloop
  endfacet
  facet normal 0 1 0
    outer loop
      vertex 0 37.5 0
      vertex 0 37.5 1
      vertex 27.5 37.5 0
    endloop
  endfacet
  facet normal 0 1 0
    outer loop
      vertex 27.5 37.5 0
      vertex 0 37.5 1
      vertex 27.5 37.5 1
    endloop
  endfacet
  facet normal 0 0 1
    outer loop
      vertex 0 37.5 1
      vertex 0 0 1
      vertex 27.5 0 1
    endloop
  endfacet
  facet normal 0 0 1
    outer loop
      vertex 27.5 37.5 1
      vertex 0 37.5 1
      vertex 27.5 0 1
    endloop
  endfacet
  facet normal 1 0 0
    outer loop
      vertex 27.5 0 1
      vertex 27.5 0 0
      vertex 27.5 37.5 0
    endloop
  endfacet
  facet normal 1 0 0
    outer loop
      vertex 27.5 37.5 1
      vertex 27.5 0 1
      vertex 27.5 37.5 0
    endloop
  endfacet
endsolid OpenSCAD_Model
